<?xml version="1.0" standalone="no"?>
<!DOCTYPE svg PUBLIC "-//W3C//DTD SVG 20010904//EN"
 "http://www.w3.org/TR/2001/REC-SVG-20010904/DTD/svg10.dtd">
<svg version="1.0" xmlns="http://www.w3.org/2000/svg"
 width="500.000000pt" height="500.000000pt" viewBox="0 0 500.000000 500.000000"
 preserveAspectRatio="xMidYMid meet">
<metadata>
Created by potrace 1.11, written by Peter Selinger 2001-2013
</metadata>
<g transform="translate(0.000000,500.000000) scale(0.100000,-0.100000)"
fill="#000000" stroke="none">
<path d="M0 4199 l0 -801 74 -186 c80 -202 161 -451 195 -602 12 -52 28 -158
36 -235 l14 -140 -4 155 c-4 153 -27 358 -45 406 -14 36 6 30 26 -8 33 -65
202 -276 265 -333 l33 -30 -27 35 c-50 65 -175 254 -207 315 -17 33 -23 49
-13 35 95 -130 142 -188 213 -263 l82 -88 -21 -87 c-45 -178 -183 -506 -283
-671 -28 -47 -36 -67 -28 -76 21 -25 234 -101 407 -144 133 -34 128 -23 -7 15
-234 65 -390 123 -390 145 0 7 13 33 30 59 68 106 218 444 266 600 26 86 60
281 73 420 14 150 -3 216 -89 348 -22 34 -36 62 -31 62 6 0 14 -6 18 -14 4 -8
53 -61 108 -118 82 -84 110 -122 156 -208 31 -58 71 -140 89 -182 17 -43 35
-80 40 -83 4 -2 10 13 14 34 7 47 -21 120 -63 166 -31 33 -51 67 -80 135 -21
49 -73 112 -164 199 -69 65 -144 165 -186 249 -51 101 -72 192 -81 352 -5 80
-16 208 -25 285 -16 138 -13 387 5 454 6 24 9 21 35 -39 97 -220 245 -474 397
-684 l28 -39 -50 -61 c-74 -90 -151 -198 -145 -205 3 -3 56 45 117 106 119
119 121 120 161 67 17 -23 17 -24 -25 -76 -53 -65 -92 -127 -85 -134 3 -3 17
13 31 35 15 23 28 41 31 41 8 0 55 -74 55 -87 0 -7 -6 -13 -14 -13 -8 0 -17
-4 -20 -9 -4 -5 3 -7 14 -4 27 7 27 -29 0 -93 -11 -26 -18 -49 -16 -51 7 -7
32 46 50 106 13 45 14 57 3 70 -19 22 -57 90 -57 101 0 5 14 25 32 45 l31 36
59 -58 c32 -31 58 -53 58 -48 0 6 -20 30 -45 55 -24 25 -44 50 -45 56 0 6 19
26 41 44 34 27 45 31 58 22 70 -49 213 -133 218 -129 3 3 -10 15 -28 26 -45
26 -268 233 -265 245 1 6 41 45 88 88 l86 79 77 -41 c80 -42 241 -110 259
-110 6 0 -11 14 -39 31 -75 47 -225 160 -225 169 0 14 65 60 85 60 9 0 38 -11
64 -25 96 -51 201 -91 228 -86 16 2 39 -35 105 -166 28 -56 48 -108 45 -115
-10 -28 -417 -236 -637 -325 -35 -15 -80 -35 -100 -45 l-35 -17 38 -1 c26 0
37 -4 37 -15 0 -36 -33 -90 -87 -141 -74 -71 -43 -56 72 35 52 41 98 70 109
69 13 -2 39 -41 82 -121 35 -65 64 -124 64 -131 0 -8 -14 -19 -30 -26 -44 -18
-46 -30 -5 -19 53 15 173 68 316 139 120 60 129 63 158 51 17 -7 43 -25 57
-40 32 -31 188 -349 264 -538 l54 -132 -26 -61 c-31 -71 -22 -80 15 -13 22 41
27 45 33 28 4 -11 24 -60 44 -110 77 -186 93 -241 82 -274 -7 -19 -7 -31 -1
-31 5 0 9 5 9 12 0 61 146 -349 189 -532 18 -74 38 -162 46 -195 57 -241 115
-613 115 -736 0 -90 6 -82 -159 -195 -84 -56 -104 -66 -111 -54 -6 8 -10 22
-10 30 0 8 -32 109 -70 225 -92 274 -116 362 -130 465 -9 61 -20 98 -40 130
-15 25 -31 58 -34 74 -10 40 -61 86 -97 86 -70 0 -293 -43 -389 -75 -58 -19
-143 -42 -190 -50 -137 -26 -140 -27 -140 -36 0 -10 109 -3 174 11 45 10 58 6
49 -15 -3 -8 0 -15 6 -15 6 0 13 10 16 23 5 18 28 32 103 64 53 22 121 44 149
48 l53 7 115 -109 c98 -91 122 -120 154 -183 105 -206 161 -400 190 -655 11
-96 12 -94 -124 -163 -49 -25 -85 -47 -78 -49 13 -5 140 62 236 123 37 24 70
44 73 44 2 0 45 27 94 60 80 54 95 60 140 60 l50 0 31 55 c30 54 107 125 135
125 44 0 129 -66 186 -144 21 -28 38 -54 38 -58 0 -4 -15 -15 -32 -24 -58 -30
-196 -125 -201 -138 -3 -8 -9 -34 -12 -60 l-7 -46 1086 0 1086 0 0 575 c0 340
-4 575 -9 575 -16 0 -363 -152 -613 -268 -211 -99 -446 -216 -638 -320 -36
-19 -85 -46 -109 -59 -24 -12 -49 -27 -55 -31 -6 -4 -23 -13 -38 -20 -23 -10
-28 -9 -28 3 0 8 6 12 14 9 22 -8 31 17 12 32 -11 8 -13 14 -7 19 6 3 11 1 11
-5 0 -6 4 -8 10 -5 12 8 13 92 1 99 -4 3 -6 -5 -4 -18 6 -31 -31 -71 -55 -60
-9 4 -25 7 -34 8 -10 0 -18 5 -18 11 0 5 -5 2 -11 -8 -11 -19 -35 -23 -41 -6
-3 9 -14 8 -42 -2 -32 -12 -38 -11 -47 1 -6 11 -11 12 -17 3 -4 -6 -23 -13
-42 -15 -30 -3 -35 -6 -32 -26 2 -21 1 -22 -14 -8 -18 18 -44 21 -44 5 0 -6 7
-9 15 -6 33 13 22 -13 -12 -29 -21 -10 -41 -22 -44 -27 -3 -5 -10 -8 -15 -7
-5 0 -11 -10 -12 -22 -8 -51 -22 -51 -77 2 -30 27 -69 57 -89 66 -19 10 -33
21 -30 25 2 4 47 40 99 79 106 80 305 268 305 288 0 8 -35 -21 -77 -63 -73
-72 -282 -245 -415 -343 l-58 -42 -6 27 c-3 16 -24 93 -45 173 -32 118 -41
168 -45 270 -5 92 -12 137 -26 170 -11 25 -37 127 -59 228 -22 100 -48 206
-59 235 -17 47 -84 269 -123 405 l-15 53 44 75 c120 203 258 513 330 741 22
68 42 123 47 123 8 0 12 -216 8 -405 -4 -142 -32 -346 -61 -446 -25 -83 -21
-104 4 -27 48 143 96 354 96 417 0 22 5 43 10 46 20 13 11 -252 -15 -430 -14
-93 -25 -172 -25 -175 0 -12 50 85 102 200 81 178 146 369 184 535 9 44 21 84
24 88 14 17 30 -214 32 -453 1 -254 -10 -364 -49 -468 -21 -55 -11 -64 16 -15
107 192 222 458 284 658 46 146 107 407 107 456 0 15 5 31 10 34 20 12 9 -336
-15 -505 -26 -182 145 391 188 630 9 47 23 148 31 225 17 148 35 245 46 245 4
0 41 -35 83 -79 71 -72 77 -82 77 -120 0 -23 -13 -79 -30 -126 -33 -98 -25
-108 11 -13 15 42 23 85 23 130 l1 67 -80 81 -79 80 17 82 c19 90 24 101 38
76 42 -75 198 -265 323 -396 95 -97 94 -100 -11 -152 -81 -40 -108 -61 -144
-110 -40 -53 -105 -177 -86 -161 9 7 17 17 17 22 0 16 72 123 109 163 20 21
65 52 101 68 36 16 75 39 88 51 l22 21 45 -44 c53 -52 60 -39 10 20 -19 23
-35 47 -35 53 0 7 19 46 43 87 23 41 53 102 66 135 12 33 27 70 32 83 5 13 9
26 9 30 0 15 -21 -26 -47 -93 -28 -74 -99 -211 -113 -220 -20 -12 -191 242
-329 489 l-72 129 10 106 c18 174 19 177 66 229 24 26 45 45 48 42 12 -12 29
-322 25 -442 -3 -71 -1 -128 4 -128 4 0 8 6 8 13 0 6 5 55 11 107 5 52 10 184
10 293 1 130 5 197 12 197 28 0 142 -107 216 -205 44 -58 121 -201 121 -225 0
-9 7 -25 16 -36 14 -18 15 -18 9 6 -3 14 -28 70 -55 125 -55 113 -160 249
-239 309 -28 21 -51 43 -51 48 0 6 -7 8 -15 4 -13 -4 -15 9 -15 84 l0 90 48 0
c63 0 139 -48 238 -151 141 -147 232 -284 284 -426 72 -201 47 -364 -112 -713
-44 -96 -95 -214 -113 -262 -76 -196 -122 -244 -302 -318 -63 -25 -84 -39 -92
-59 -5 -14 -19 -98 -31 -186 -11 -88 -22 -178 -25 -200 -4 -32 -4 -36 4 -18 6
13 17 73 26 135 34 251 37 267 54 281 16 15 120 52 125 46 6 -6 115 -266 168
-398 68 -172 78 -216 85 -378 3 -79 10 -143 15 -143 9 0 9 -6 17 205 l6 160
19 -50 c26 -67 146 -318 151 -314 2 2 -7 43 -20 92 -28 103 -42 212 -25 184
48 -75 161 -382 186 -505 10 -45 20 -82 24 -82 9 0 50 256 60 372 4 51 6 127
4 168 -4 84 -4 85 47 -105 29 -109 95 -293 119 -334 6 -10 10 634 10 1747 l0
1762 -2500 0 -2500 0 0 -801z m1613 489 c13 -24 51 -90 84 -148 59 -102 143
-264 143 -275 0 -2 -17 -12 -37 -20 -35 -15 -39 -15 -50 1 -7 10 -13 23 -13
30 0 20 -91 284 -126 367 -19 43 -34 81 -34 83 0 12 11 -1 33 -38z m-220 -448
c105 -122 115 -134 100 -129 -6 2 -46 45 -88 94 -42 50 -123 137 -179 195 -56
58 -106 112 -110 120 -16 29 197 -186 277 -280z m-795 175 c149 -182 328 -347
500 -460 39 -26 72 -49 72 -51 0 -12 -177 -141 -186 -136 -32 19 -174 214
-271 372 -64 105 -183 331 -183 347 0 9 6 2 68 -72z m3368 -60 l7 -75 -46 -49
c-25 -27 -47 -47 -49 -46 -2 2 -2 60 0 130 l3 126 32 14 c39 16 43 10 53 -100z
m-1967 25 c24 -62 25 -70 12 -70 -9 0 -41 94 -41 121 0 20 7 8 29 -51z m-1079
-102 c74 -61 253 -176 363 -233 20 -11 37 -22 37 -25 0 -7 -67 -60 -76 -60 -5
0 -43 28 -114 85 -53 43 -165 154 -233 230 -40 44 -63 73 -52 64 11 -8 45 -36
75 -61z m1131 -25 c43 -100 132 -384 171 -543 79 -330 90 -436 68 -661 -13
-128 -48 -371 -55 -377 -10 -11 -7 -31 -67 363 -12 79 -18 159 -15 204 4 71 3
76 -24 104 l-29 30 20 27 c28 39 25 51 -3 16 -21 -26 -25 -27 -45 -15 -12 8
-22 18 -22 23 0 5 -14 -3 -31 -20 l-32 -29 6 31 c3 18 9 45 12 60 l6 29 -18
-21 c-10 -12 -24 -30 -31 -40 -14 -20 -13 -13 4 34 5 11 4 14 -3 7 -5 -5 -17
-30 -26 -55 -34 -92 -126 -208 -246 -310 -63 -55 -158 -120 -173 -120 -4 0 -8
27 -8 61 0 52 -2 60 -16 55 -9 -3 -33 -9 -55 -12 -51 -9 -52 12 -3 62 l37 36
-22 46 c-12 24 -19 48 -14 53 4 4 59 33 122 64 63 32 151 80 195 107 71 45 81
49 91 34 17 -23 25 -20 25 9 0 20 15 34 74 72 41 26 75 52 75 56 1 4 -21 5
-49 1 -55 -7 -66 4 -25 26 14 7 25 17 25 22 0 5 -23 -3 -50 -18 -28 -15 -52
-25 -54 -23 -3 3 -10 51 -15 107 -10 97 -59 358 -80 430 -10 32 -9 34 24 48
19 8 40 14 47 14 7 0 37 -54 66 -121 83 -188 152 -427 152 -526 0 -28 5 -55
12 -59 22 -14 -9 403 -46 624 -12 72 -20 134 -18 137 13 13 24 1 43 -42z
m-476 -238 c35 -48 57 -85 51 -85 -3 0 -25 29 -51 64 -25 35 -52 69 -60 76 -8
7 -15 18 -15 24 1 11 40 -30 75 -79z m-925 46 c0 -15 111 -151 206 -253 l84
-92 -27 -29 -28 -28 -31 36 c-56 67 -232 375 -214 375 5 0 10 -4 10 -9z m385
-425 c22 -19 38 -36 35 -38 -3 -2 -22 -16 -43 -32 l-38 -28 -26 23 c-43 41
-48 58 -22 85 30 32 46 30 94 -10z m1385 -692 c0 -147 -7 -333 -16 -437 -17
-207 -50 -437 -64 -451 -6 -6 -10 -6 -10 -1 0 6 -7 53 -16 105 -9 52 -26 154
-38 225 l-22 130 24 70 c70 205 122 447 122 568 0 26 5 47 10 47 6 0 10 -92
10 -256z m1051 -2525 c-18 -11 -35 -18 -38 -15 -5 5 46 35 62 36 6 0 -5 -9
-24 -21z m-81 -43 c0 -2 -7 -7 -16 -10 -8 -3 -12 -2 -9 4 6 10 25 14 25 6z
m-309 -53 c13 -16 12 -17 -3 -4 -17 13 -22 21 -14 21 2 0 10 -8 17 -17z"/>
<path d="M1445 3494 c-141 -65 -243 -104 -444 -170 -8 -2 -12 -7 -9 -9 4 -5
97 25 282 90 51 18 293 128 303 139 15 15 -20 2 -132 -50z"/>
<path d="M1 2871 l-1 -244 47 -81 c93 -162 288 -434 301 -421 2 2 -12 29 -31
58 -107 160 -233 523 -302 867 -12 61 -13 50 -14 -179z"/>
<path d="M1353 2833 c9 -2 23 -2 30 0 6 3 -1 5 -18 5 -16 0 -22 -2 -12 -5z"/>
<path d="M1006 2534 c-9 -25 -7 -41 4 -24 7 11 10 6 11 -20 l1 -35 10 32 c8
25 7 35 -5 47 -13 14 -16 14 -21 0z"/>
<path d="M1035 1500 c3 -5 10 -10 16 -10 5 0 9 5 9 10 0 6 -7 10 -16 10 -8 0
-12 -4 -9 -10z"/>
<path d="M915 1437 c106 -31 121 -40 145 -87 25 -50 25 -107 0 -190 -11 -36
-20 -68 -20 -72 0 -30 192 -98 278 -98 18 0 42 -5 53 -10 13 -7 19 -7 19 -1 0
11 -2 12 -130 36 -106 20 -196 61 -193 90 1 11 9 57 19 103 20 95 11 145 -33
186 -26 24 -101 50 -178 61 -22 3 -4 -5 40 -18z"/>
<path d="M1420 923 c0 -29 33 -150 50 -183 21 -41 75 -80 150 -110 89 -35 118
-61 176 -153 62 -100 100 -179 154 -322 21 -55 43 -113 49 -129 7 -16 14 -26
17 -24 12 13 -106 301 -173 420 -80 142 -113 175 -226 226 -87 40 -97 47 -120
90 -14 26 -33 76 -42 112 -15 60 -35 101 -35 73z"/>
<path d="M3551 634 c0 -11 3 -14 6 -6 3 7 2 16 -1 19 -3 4 -6 -2 -5 -13z"/>
</g>
</svg>
